<svg xmlns="http://www.w3.org/2000/svg" width="1024" height="1024" viewBox="0 0 1024 1024">
  <!-- Icon background -->
  <rect x="80" y="80" width="864" height="864" rx="180" fill="#0B0B0B"/>

  <!-- Logo mark scaled & centered -->
  <g transform="translate(0,0) scale(0.78) translate(140,140)">
    <path fill="#F2F2F2" d="
      M 120 280
      H 814
      L 964 400
      H 180
      A 60 60 0 0 1 120 340
      V 340
      A 60 60 0 0 1 180 280
      Z
    "/>

    <rect x="90" y="437" width="460" height="130" rx="65" fill="#B7FF1A"/>
    <rect x="578" y="447" width="110" height="110" rx="28" fill="#B7FF1A"/>
    <rect x="716" y="447" width="110" height="110" rx="28" fill="#B7FF1A"/>
    <rect x="854" y="447" width="110" height="110" rx="28" fill="#B7FF1A"/>

    <path fill="#F2F2F2" d="
      M 120 624
      H 904
      A 60 60 0 0 1 964 684
      V 744
      A 60 60 0 0 1 904 804
      H 270
      L 120 624
      Z
    "/>
  </g>
</svg>
